<svg xmlns="http://www.w3.org/2000/svg" width="64" height="40" viewBox="0 0 64 40">
  <rect width="64" height="40" rx="6" fill="#111111" />
  <path
    d="M19.4 12.4c-.9.1-1.9.6-2.5 1.4-.5.7-.9 1.8-.7 2.8.9.1 1.9-.5 2.5-1.3.6-.7.9-1.7.7-2.9zM21.7 14.7c-1.4-.1-2.6.8-3.3.8-.7 0-1.8-.8-3-.8-1.6 0-3 1-3.8 2.5-1.6 2.8-.4 6.9 1.1 9.2.8 1.1 1.8 2.4 3.1 2.4 1.2 0 1.6-.8 3-.8 1.4 0 1.7.8 3 .8 1.3 0 2.1-1.1 2.9-2.3.9-1.4 1.2-2.8 1.2-2.9-.1-.1-2.4-.9-2.5-3.5-.1-2.2 1.8-3.2 1.9-3.3-1.1-1.6-2.9-1.9-3.6-2z"
    fill="#ffffff"
  />
  <text x="32" y="24" text-anchor="start" font-family="Arial, Helvetica, sans-serif" font-size="16" font-weight="700" fill="#ffffff">
    Pay
  </text>
</svg>
