<svg xmlns="http://www.w3.org/2000/svg" width="64" height="40" viewBox="0 0 64 40">
  <rect width="64" height="40" rx="6" fill="#ffffff" stroke="#e2e8f0" />
  <g transform="translate(12 10)">
    <g transform="scale(0.75)">
      <path fill="#4285f4" d="M6.4 13.5c-.3-1.6-.3-3.3 0-4.9l-4.9-3.8C.2 7.3 0 8.6 0 10c0 1.4.2 2.7.6 4z" />
      <path fill="#ea4335" d="M12 4.8c1.4 0 2.6.5 3.6 1.3l2.7-2.7C16.2 1.3 14.2 0 12 0 7.3 0 3.3 2.7 1.5 6.8l4.9 3.8C7 7.3 9.2 4.8 12 4.8z" />
      <path fill="#34a853" d="M12 19.2c-2.8 0-5-2.5-5.6-6.1l-4.9 3.8C3.3 21.3 7.3 24 12 24c2.1 0 4-.7 5.7-1.9l-2.8-2.7c-.8.5-1.8.8-2.9.8z" />
      <path fill="#fbbc05" d="M23.7 12.3c-.2-1-.4-1.7-.4-2.3H12v4.8h6.9c-.3 1.6-1.2 3-2.5 3.8l2.8 2.7c2.4-1.8 3.8-4.7 3.8-8.6 0-.6-.1-1.3-.3-2.4z" />
    </g>
    <text x="26" y="15" font-family="Arial, Helvetica, sans-serif" font-size="14" font-weight="700" fill="#1f1f1f">
      Pay
    </text>
  </g>
</svg>
